<?xml version="1.0" ?><svg enable-background="new 0 0 32 32" version="1.1" viewBox="0 0 32 32" xml:space="preserve" xmlns="http://www.w3.org/2000/svg" xmlns:xlink="http://www.w3.org/1999/xlink"><g id="OUTLINE_copy"><path d="M16.165,6.888v4.262h4.262v2.664h-4.262v4.262c0,0.99,0.094,1.785,0.199,2.066   c0.105,0.28,0.299,0.504,0.585,0.673c0.379,0.227,0.81,0.341,1.297,0.341c0.865,0,1.87-0.294,2.714-0.949v2.664   c-0.71,0.444-1.525,0.72-2.117,0.858c-0.591,0.137-1.231,0.207-1.919,0.207c-0.719,0-1.413-0.079-2.07-0.296   c-0.6-0.197-0.935-0.416-1.36-0.779c-0.423-0.365-0.629-0.732-0.793-1.144c-0.164-0.41-0.266-1.262-0.266-2.043v-5.86h-2.131V11.15   c0.682-0.05,1.247-0.242,1.723-0.648c0.48-0.408,0.864-0.897,1.152-1.467c0.29-0.571,0.322-1.27,0.322-2.147H16.165z" fill="#414752"/><g><g id="Shopping_10_109_"><g><g><g><g><path d="M16,1c8.271,0,15,6.729,15,15s-6.729,15-15,15S1,24.271,1,16S7.729,1,16,1 M16,0         C7.163,0,0,7.164,0,16s7.163,16,16,16s16-7.163,16-16S24.837,0,16,0L16,0z" fill="#414752"/></g></g></g></g></g></g></g></svg>